<?xml version="1.0" encoding="UTF-8"?>
<svg id="Capa_1" xmlns="http://www.w3.org/2000/svg" version="1.1" viewBox="0 0 1080 1080">
  <!-- Generator: Adobe Illustrator 30.4.0, SVG Export Plug-In . SVG Version: 2.1.4 Build 226)  -->
  <defs>
    <style>
      .st0 {
        fill: #1d1d1b;
      }
    </style>
  </defs>
  <rect class="st0" x="420.37" y="442.99" width="183.08" height="105.19" rx="49.15" ry="49.15" transform="translate(16.3192 1007.4996) rotate(-90)"/>
  <rect class="st0" x="459.31" y="291.62" width="140.85" height="105.19" rx="49.15" ry="49.15"/>
  <rect class="st0" x="523.01" y="351.45" width="140.85" height="105.19" rx="49.15" ry="49.15" transform="translate(189.39 997.49) rotate(-90)"/>
  <rect class="st0" x="218.51" y="442.28" width="181.65" height="105.19" rx="49.15" ry="49.15" transform="translate(-185.54 804.21) rotate(-90)"/>
  <rect class="st0" x="256.74" y="291.62" width="140.85" height="105.19" rx="49.15" ry="49.15"/>
  <rect class="st0" x="320.44" y="351.45" width="140.85" height="105.19" rx="49.15" ry="49.15" transform="translate(-13.19 794.92) rotate(-90)"/>
  <rect class="st0" x="302.36" y="467.9" width="140.85" height="105.19" rx="49.15" ry="49.15" transform="translate(268.3353 1152.1465) rotate(-135)"/>
  <rect class="st0" x="654.82" y="481.73" width="173.81" height="105.19" rx="49.15" ry="49.15" transform="translate(1483.4395 1068.6578) rotate(-180)"/>
  <rect class="st0" x="654.82" y="291.62" width="173.81" height="105.19" rx="49.15" ry="49.15" transform="translate(1483.4395 688.4427) rotate(-180)"/>
  <rect class="st0" x="617.2" y="442.89" width="180.43" height="105.19" rx="49.15" ry="49.15" transform="translate(211.9247 1202.9017) rotate(-90)"/>
  <rect class="st0" x="597.65" y="709.81" width="99.26" height="57.87" rx="27.82" ry="27.82" transform="translate(-91.4668 1386.0259) rotate(-90)"/>
  <rect class="st0" x="618.34" y="626.6" width="77.49" height="57.87" rx="27.82" ry="27.82"/>
  <rect class="st0" x="653.39" y="659.51" width="77.49" height="57.87" rx="27.82" ry="27.82" transform="translate(3.6877 1380.576) rotate(-90)"/>
  <rect class="st0" x="728.31" y="730.51" width="95.62" height="57.87" rx="27.82" ry="27.82" transform="translate(1552.2267 1518.8814) rotate(-180)"/>
  <rect class="st0" x="728.31" y="626.6" width="95.62" height="57.87" rx="27.82" ry="27.82" transform="translate(1552.2267 1311.0606) rotate(-180)"/>
  <rect class="st0" x="707.61" y="709.81" width="99.26" height="57.87" rx="27.82" ry="27.82" transform="translate(18.494 1495.9868) rotate(-90)"/>
  <rect class="st0" x="269.55" y="622.59" width="77.49" height="57.87" rx="27.82" ry="27.82"/>
  <g>
    <rect class="st0" x="230.21" y="708.61" width="99.26" height="56.92" rx="28.46" ry="28.46" transform="translate(-457.2316 1016.9045) rotate(-90)"/>
    <rect class="st0" x="287.13" y="708.61" width="99.26" height="56.92" rx="28.46" ry="28.46" transform="translate(-400.3118 1073.8243) rotate(-90)"/>
  </g>
  <rect class="st0" x="493.1" y="730.51" width="113.84" height="57.87" rx="27.82" ry="27.82" transform="translate(1100.0304 1518.8814) rotate(-180)"/>
  <g>
    <rect class="st0" x="471.45" y="647.29" width="99.26" height="57.87" rx="27.82" ry="27.82" transform="translate(-155.1446 1197.3047) rotate(-90)"/>
    <rect class="st0" x="529.32" y="647.29" width="99.26" height="57.87" rx="27.82" ry="27.82" transform="translate(-97.2744 1255.1749) rotate(-90)"/>
  </g>
  <rect class="st0" x="371.97" y="625.47" width="113.84" height="57.87" rx="27.82" ry="27.82" transform="translate(857.7894 1308.8035) rotate(-180)"/>
  <rect class="st0" x="378.93" y="709.49" width="99.93" height="56.92" rx="28.46" ry="28.46" transform="translate(-309.0595 1166.8489) rotate(-90)"/>
</svg>