<?xml version="1.0" encoding="UTF-8"?>
<svg id="Capa_1" xmlns="http://www.w3.org/2000/svg" version="1.1" viewBox="0 0 1080 1080">
  <!-- Generator: Adobe Illustrator 30.4.0, SVG Export Plug-In . SVG Version: 2.1.4 Build 226)  -->
  <defs>
    <style>
      .st0, .st1 {
        fill: #1d1d1b;
      }

      .st1 {
        stroke: #1d1e1b;
        stroke-miterlimit: 10;
        stroke-width: .5px;
      }

      .st2 {
        fill: #1d1e1b;
      }
    </style>
  </defs>
  <g>
    <path class="st0" d="M325.15,632.9h-93.54c-9.75,0-17.65-7.9-17.65-17.65v-150.49c0-9.75,7.9-17.65,17.65-17.65h161.06c9.75,0,17.65,7.9,17.65,17.65v82.97c-47.04,0-85.17,38.13-85.17,85.17Z"/>
    <path class="st2" d="M325.4,633.15h-93.79c-9.87,0-17.9-8.03-17.9-17.9v-150.49c0-9.87,8.03-17.9,17.9-17.9h161.06c9.87,0,17.9,8.03,17.9,17.9v83.22h-.25c-46.83,0-84.92,38.1-84.92,84.92v.25ZM231.61,447.35c-9.59,0-17.4,7.81-17.4,17.4v150.49c0,9.59,7.81,17.4,17.4,17.4h93.29c.13-46.91,38.27-85.04,85.17-85.17v-82.72c0-9.59-7.81-17.4-17.4-17.4h-161.06Z"/>
  </g>
  <path class="st1" d="M560.54,632.9h-93.54c-9.75,0-17.65-7.9-17.65-17.65v-150.49c0-9.75,7.9-17.65,17.65-17.65h161.06c9.75,0,17.65,7.9,17.65,17.65v82.97c-47.04,0-85.17,38.13-85.17,85.17Z"/>
  <path class="st1" d="M777.1,447.1h89.2v185.79h-89.2c-51.11,0-92.6-41.49-92.6-92.6v-.58c0-51.11,41.49-92.6,92.6-92.6Z"/>
  <circle class="st1" cx="379.58" cy="602.66" r="30.49"/>
</svg>